<svg width="263" height="132" viewBox="0 0 263 132" fill="none" xmlns="http://www.w3.org/2000/svg">
<path d="M46.96 60.28C44.02 60.28 41.36 59.6733 38.98 58.46C36.6 57.2 34.6633 54.7733 33.17 51.18L31.56 47.26H12.94L7.2 60H3.56L24.21 13.8H27.36L43.04 51.18C44.8133 55.52 47.24 57.8533 50.32 58.18V59.93C49.48 60.1633 48.36 60.28 46.96 60.28ZM14.41 44.11H30.23L22.53 25.84L14.41 44.11ZM74.9923 27.8C75.8323 28.4067 76.4389 29.0833 76.8123 29.83C77.1856 30.53 77.3723 30.9033 77.3723 30.95L73.8023 33.68C73.4756 33.26 73.0556 32.8167 72.5423 32.35C71.5156 31.4167 70.3256 30.95 68.9723 30.95C66.2656 30.95 64.1889 31.6733 62.7423 33.12L62.8823 34.17C62.9756 35.01 63.0223 35.78 63.0223 36.48V60H53.9223V36.2C53.9223 33.82 53.5956 32.07 52.9423 30.95C52.3356 29.7833 51.0523 29.2 49.0923 29.2H48.3923V27.1H55.3223C56.9089 27.1 58.1456 27.31 59.0323 27.73C59.9656 28.1033 60.6889 28.7567 61.2023 29.69C63.7223 27.4967 66.6623 26.4 70.0223 26.4C72.0289 26.4 73.6856 26.8667 74.9923 27.8ZM87.6601 23.32C85.9801 23.32 84.6734 22.8067 83.7401 21.78C82.8534 20.7533 82.4101 19.4933 82.4101 18C82.4101 16.7867 82.7601 15.83 83.4601 15.13C84.2067 14.43 85.1401 14.08 86.2601 14.08C87.9401 14.08 89.2234 14.5933 90.1101 15.62C91.0434 16.6467 91.5101 17.9067 91.5101 19.4C91.5101 20.6133 91.1367 21.57 90.3901 22.27C89.6901 22.97 88.7801 23.32 87.6601 23.32ZM83.1101 36.2C83.1101 33.82 82.7834 32.07 82.1301 30.95C81.4767 29.7833 80.1701 29.2 78.2101 29.2H77.5101V27.1H85.9101C87.5901 27.1 88.8734 27.38 89.7601 27.94C90.6467 28.5 91.2767 29.4333 91.6501 30.74C92.0234 32 92.2101 33.82 92.2101 36.2V60H83.1101V36.2ZM110.172 60.7C106.392 60.7 103.452 59.86 101.352 58.18C99.2989 56.4533 98.2722 54.1433 98.2722 51.25C98.2722 48.9167 98.8089 46.98 99.8822 45.44C101.002 43.9 102.939 42.7333 105.692 41.94C108.446 41.1467 112.272 40.75 117.172 40.75H118.222C118.222 36.69 117.662 33.82 116.542 32.14C115.422 30.4133 113.766 29.55 111.572 29.55C109.752 29.55 108.259 29.9933 107.092 30.88C105.926 31.7667 105.086 33.4233 104.572 35.85H100.722C100.722 34.2633 100.816 32.91 101.002 31.79C101.236 30.67 101.726 29.69 102.472 28.85C103.919 27.2167 107.419 26.4 112.972 26.4C117.639 26.4 121.186 27.6367 123.612 30.11C126.086 32.5367 127.322 36.2 127.322 41.1V60H121.372L118.922 56.85H118.572C118.152 57.5033 117.499 58.1567 116.612 58.81C115.026 60.07 112.879 60.7 110.172 60.7ZM112.272 57.2C113.252 57.2 114.092 57.0133 114.792 56.64C115.492 56.22 116.169 55.66 116.822 54.96C117.429 54.3067 117.896 53.5367 118.222 52.65V43.9H117.172C113.859 43.9 111.456 44.5067 109.962 45.72C108.469 46.8867 107.722 48.73 107.722 51.25C107.722 53.1633 108.119 54.6333 108.912 55.66C109.706 56.6867 110.826 57.2 112.272 57.2ZM146.999 60.7C141.539 60.7 137.782 59.7433 135.729 57.83C134.982 57.13 134.515 56.15 134.329 54.89C134.142 53.5833 134.049 51.7867 134.049 49.5H136.499C136.919 51.9267 137.875 53.8867 139.369 55.38C140.862 56.8267 142.939 57.55 145.599 57.55C150.265 57.55 152.599 55.9633 152.599 52.79C152.599 51.5767 152.085 50.5733 151.059 49.78C150.079 48.9867 148.492 48.1 146.299 47.12L142.659 45.58C139.672 44.2733 137.432 42.85 135.939 41.31C134.445 39.77 133.699 37.9033 133.699 35.71C133.699 32.77 134.912 30.4833 137.339 28.85C139.812 27.2167 143.032 26.4 146.999 26.4C152.459 26.4 156.215 27.3567 158.269 29.27C159.015 29.97 159.482 30.95 159.669 32.21C159.855 33.47 159.949 35.2667 159.949 37.6H157.499C157.079 35.1733 156.122 33.2367 154.629 31.79C153.135 30.2967 151.059 29.55 148.399 29.55C146.392 29.55 144.899 29.9933 143.919 30.88C142.939 31.72 142.449 32.8633 142.449 34.31C142.449 35.4767 142.845 36.4567 143.639 37.25C144.479 37.9967 145.739 38.7433 147.419 39.49L151.619 41.24C155.072 42.6867 157.545 44.1567 159.039 45.65C160.579 47.0967 161.349 49.01 161.349 51.39C161.349 54.3767 160.019 56.6867 157.359 58.32C154.745 59.9067 151.292 60.7 146.999 60.7ZM7.27 85.99C6.24333 83.4233 5.19333 81.6033 4.12 80.53C3.04667 79.4567 1.78667 78.8267 0.34 78.64V77.24L3.28 77.1C6.40667 77.1 9.13667 77.6833 11.47 78.85C13.8033 79.97 15.6933 82.35 17.14 85.99L26.59 110.14L32.89 92.22L30.44 85.99C29.4133 83.47 28.2933 81.6733 27.08 80.6C25.9133 79.48 24.56 78.8267 23.02 78.64V77.24L25.75 77.1C28.8767 77.1 31.6067 77.6833 33.94 78.85C36.2733 80.0167 38.1633 82.3967 39.61 85.99L49.62 111.47L61.59 77.8H64.95L48.36 124.63H45.56L34.78 97.19L25.19 124.63H22.39L7.27 85.99ZM80.6841 124.7C77.4641 124.7 74.6408 123.953 72.2141 122.46C69.7875 120.967 67.8975 118.937 66.5441 116.37C65.2375 113.757 64.5841 110.817 64.5841 107.55C64.5841 103.91 65.2375 100.807 66.5441 98.24C67.8975 95.6733 69.7408 93.7367 72.0741 92.43C74.4075 91.0767 77.0441 90.4 79.9841 90.4C82.8775 90.4 85.4908 90.9833 87.8241 92.15C90.1575 93.3167 92.0008 94.9733 93.3541 97.12C94.7075 99.22 95.3841 101.647 95.3841 104.4C95.3841 105.287 95.3375 106.29 95.2441 107.41L95.1041 108.81H74.0341C74.0341 113.243 74.7108 116.487 76.0641 118.54C77.4175 120.547 79.3075 121.55 81.7341 121.55C83.9741 121.55 85.8408 121.06 87.3341 120.08C88.8741 119.053 90.3441 117.607 91.7441 115.74L93.9141 117.35C92.5608 119.45 90.8575 121.2 88.8041 122.6C86.7975 124 84.0908 124.7 80.6841 124.7ZM85.9341 105.66C85.9341 101.273 85.4208 98.17 84.3941 96.35C83.3675 94.4833 81.8975 93.55 79.9841 93.55C78.2108 93.55 76.7641 94.5067 75.6441 96.42C74.5708 98.2867 74.0341 101.367 74.0341 105.66H85.9341ZM111.539 124.7C107.759 124.7 104.819 123.86 102.719 122.18C100.666 120.453 99.6394 118.143 99.6394 115.25C99.6394 112.917 100.176 110.98 101.249 109.44C102.369 107.9 104.306 106.733 107.059 105.94C109.813 105.147 113.639 104.75 118.539 104.75H119.589C119.589 100.69 119.029 97.82 117.909 96.14C116.789 94.4133 115.133 93.55 112.939 93.55C111.119 93.55 109.626 93.9933 108.459 94.88C107.293 95.7667 106.453 97.4233 105.939 99.85H102.089C102.089 98.2633 102.183 96.91 102.369 95.79C102.603 94.67 103.093 93.69 103.839 92.85C105.286 91.2167 108.786 90.4 114.339 90.4C119.006 90.4 122.553 91.6367 124.979 94.11C127.453 96.5367 128.689 100.2 128.689 105.1V124H122.739L120.289 120.85H119.939C119.519 121.503 118.866 122.157 117.979 122.81C116.393 124.07 114.246 124.7 111.539 124.7ZM113.639 121.2C114.619 121.2 115.459 121.013 116.159 120.64C116.859 120.22 117.536 119.66 118.189 118.96C118.796 118.307 119.263 117.537 119.589 116.65V107.9H118.539C115.226 107.9 112.823 108.507 111.329 109.72C109.836 110.887 109.089 112.73 109.089 115.25C109.089 117.163 109.486 118.633 110.279 119.66C111.073 120.687 112.193 121.2 113.639 121.2ZM148.156 124.7C144.936 124.7 142.439 123.837 140.666 122.11C138.893 120.337 138.006 117.793 138.006 114.48V94.25H133.806V91.1H138.006V84.8L141.506 80.6H147.106V91.1H154.806V94.25H147.106V114.9C147.106 117.42 147.409 119.17 148.016 120.15C148.623 121.083 149.533 121.55 150.746 121.55C152.053 121.55 153.359 121.247 154.666 120.64C155.179 120.36 155.716 120.033 156.276 119.66L157.256 121.62C156.649 122.133 155.926 122.647 155.086 123.16C153.126 124.187 150.816 124.7 148.156 124.7ZM161.282 86.9C161.282 84.52 160.955 82.77 160.302 81.65C159.649 80.4833 158.342 79.9 156.382 79.9H155.682V77.8H164.082C165.762 77.8 167.045 78.08 167.932 78.64C168.819 79.2 169.449 80.1333 169.822 81.44C170.195 82.7 170.382 84.52 170.382 86.9V93.06C170.802 92.7333 171.525 92.29 172.552 91.73C174.419 90.8433 176.262 90.4 178.082 90.4C181.862 90.4 185.012 91.38 187.532 93.34C190.099 95.2533 191.382 98.5433 191.382 103.21V124H182.282V103.56C182.282 100.2 181.675 97.75 180.462 96.21C179.295 94.67 177.802 93.9 175.982 93.9C174.722 93.9 173.392 94.32 171.992 95.16C171.432 95.4867 170.895 95.8833 170.382 96.35V124H161.282V86.9ZM213.848 124.7C210.628 124.7 207.805 123.953 205.378 122.46C202.952 120.967 201.062 118.937 199.708 116.37C198.402 113.757 197.748 110.817 197.748 107.55C197.748 103.91 198.402 100.807 199.708 98.24C201.062 95.6733 202.905 93.7367 205.238 92.43C207.572 91.0767 210.208 90.4 213.148 90.4C216.042 90.4 218.655 90.9833 220.988 92.15C223.322 93.3167 225.165 94.9733 226.518 97.12C227.872 99.22 228.548 101.647 228.548 104.4C228.548 105.287 228.502 106.29 228.408 107.41L228.268 108.81H207.198C207.198 113.243 207.875 116.487 209.228 118.54C210.582 120.547 212.472 121.55 214.898 121.55C217.138 121.55 219.005 121.06 220.498 120.08C222.038 119.053 223.508 117.607 224.908 115.74L227.078 117.35C225.725 119.45 224.022 121.2 221.968 122.6C219.962 124 217.255 124.7 213.848 124.7ZM219.098 105.66C219.098 101.273 218.585 98.17 217.558 96.35C216.532 94.4833 215.062 93.55 213.148 93.55C211.375 93.55 209.928 94.5067 208.808 96.42C207.735 98.2867 207.198 101.367 207.198 105.66H219.098ZM257.443 91.8C258.283 92.4067 258.89 93.0833 259.263 93.83C259.637 94.53 259.823 94.9033 259.823 94.95L256.253 97.68C255.927 97.26 255.507 96.8167 254.993 96.35C253.967 95.4167 252.777 94.95 251.423 94.95C248.717 94.95 246.64 95.6733 245.193 97.12L245.333 98.17C245.427 99.01 245.473 99.78 245.473 100.48V124H236.373V100.2C236.373 97.82 236.047 96.07 235.393 94.95C234.787 93.7833 233.503 93.2 231.543 93.2H230.843V91.1H237.773C239.36 91.1 240.597 91.31 241.483 91.73C242.417 92.1033 243.14 92.7567 243.653 93.69C246.173 91.4967 249.113 90.4 252.473 90.4C254.48 90.4 256.137 90.8667 257.443 91.8Z" fill="white"/>
<path d="M215.5 14L212 24.269L208.5 14C207.842 12.0645 208.871 9.96801 210.807 9.30651C212.739 8.64851 214.842 9.68101 215.5 11.613C215.773 12.418 215.752 13.2545 215.5 14ZM184 38.5L194.269 42L184 45.5C182.065 46.158 179.968 45.129 179.307 43.1935C178.649 41.2615 179.681 39.158 181.613 38.5C182.418 38.227 183.255 38.248 184 38.5ZM208.5 70L212 59.731L215.5 70C216.158 71.9355 215.129 74.032 213.194 74.6935C211.262 75.3515 209.162 74.3225 208.5 72.387C208.227 71.582 208.248 70.7455 208.5 70ZM240 45.493L229.731 41.993L240 38.493C241.936 37.835 244.032 38.864 244.694 40.7995C245.352 42.7315 244.323 44.8315 242.387 45.493C241.582 45.766 240.746 45.745 240 45.493ZM194.675 19.726L199.46 29.4595L189.726 24.675C187.892 23.7755 187.136 21.5565 188.036 19.726C188.939 17.8955 191.154 17.1395 192.985 18.039C193.748 18.4135 194.325 19.019 194.675 19.726ZM189.726 59.3215L199.46 54.537L194.675 64.2705C193.776 66.101 191.557 66.857 189.726 65.9575C187.896 65.0545 187.14 62.839 188.039 61.0085C188.414 60.2455 189.019 59.6715 189.726 59.3215ZM229.322 64.2705L224.537 54.537L234.271 59.3215C236.101 60.221 236.857 62.44 235.958 64.2705C235.055 66.101 232.839 66.857 231.009 65.9575C230.246 65.583 229.672 64.9775 229.322 64.2705ZM234.267 24.668L224.53 29.456L229.318 19.719C230.218 17.8885 232.437 17.1325 234.267 18.032C236.098 18.935 236.854 21.1505 235.951 22.9845C235.58 23.744 234.974 24.318 234.267 24.668ZM212 57.75C203.317 57.75 196.25 50.6835 196.25 42C196.25 33.3165 203.317 26.25 212 26.25C220.684 26.25 227.75 33.3165 227.75 42C227.75 50.6835 220.684 57.75 212 57.75ZM212 33.25C207.174 33.25 203.25 37.1735 203.25 42C203.25 46.8265 207.174 50.75 212 50.75C216.827 50.75 220.75 46.8265 220.75 42C220.75 37.1735 216.827 33.25 212 33.25Z" fill="white" fill-opacity="0.3"/>
</svg>
