<svg width="260" height="112" viewBox="0 0 260 112" fill="none" xmlns="http://www.w3.org/2000/svg">
<path d="M46.96 47.28C44.02 47.28 41.36 46.6733 38.98 45.46C36.6 44.2 34.6633 41.7733 33.17 38.18L31.56 34.26H12.94L7.2 47H3.56L24.21 0.799998H27.36L43.04 38.18C44.8133 42.52 47.24 44.8533 50.32 45.18V46.93C49.48 47.1633 48.36 47.28 46.96 47.28ZM14.41 31.11H30.23L22.53 12.84L14.41 31.11ZM74.9923 14.8C75.8323 15.4067 76.4389 16.0833 76.8123 16.83C77.1856 17.53 77.3723 17.9033 77.3723 17.95L73.8023 20.68C73.4756 20.26 73.0556 19.8167 72.5423 19.35C71.5156 18.4167 70.3256 17.95 68.9723 17.95C66.2656 17.95 64.1889 18.6733 62.7423 20.12L62.8823 21.17C62.9756 22.01 63.0223 22.78 63.0223 23.48V47H53.9223V23.2C53.9223 20.82 53.5956 19.07 52.9423 17.95C52.3356 16.7833 51.0523 16.2 49.0923 16.2H48.3923V14.1H55.3223C56.9089 14.1 58.1456 14.31 59.0323 14.73C59.9656 15.1033 60.6889 15.7567 61.2023 16.69C63.7223 14.4967 66.6623 13.4 70.0223 13.4C72.0289 13.4 73.6856 13.8667 74.9923 14.8ZM87.6601 10.32C85.9801 10.32 84.6734 9.80666 83.7401 8.78C82.8534 7.75333 82.4101 6.49333 82.4101 5C82.4101 3.78666 82.7601 2.83 83.4601 2.13C84.2067 1.43 85.1401 1.08 86.2601 1.08C87.9401 1.08 89.2234 1.59333 90.1101 2.62C91.0434 3.64666 91.5101 4.90666 91.5101 6.4C91.5101 7.61333 91.1367 8.57 90.3901 9.27C89.6901 9.97 88.7801 10.32 87.6601 10.32ZM83.1101 23.2C83.1101 20.82 82.7834 19.07 82.1301 17.95C81.4767 16.7833 80.1701 16.2 78.2101 16.2H77.5101V14.1H85.9101C87.5901 14.1 88.8734 14.38 89.7601 14.94C90.6467 15.5 91.2767 16.4333 91.6501 17.74C92.0234 19 92.2101 20.82 92.2101 23.2V47H83.1101V23.2ZM110.172 47.7C106.392 47.7 103.452 46.86 101.352 45.18C99.2989 43.4533 98.2722 41.1433 98.2722 38.25C98.2722 35.9167 98.8089 33.98 99.8822 32.44C101.002 30.9 102.939 29.7333 105.692 28.94C108.446 28.1467 112.272 27.75 117.172 27.75H118.222C118.222 23.69 117.662 20.82 116.542 19.14C115.422 17.4133 113.766 16.55 111.572 16.55C109.752 16.55 108.259 16.9933 107.092 17.88C105.926 18.7667 105.086 20.4233 104.572 22.85H100.722C100.722 21.2633 100.816 19.91 101.002 18.79C101.236 17.67 101.726 16.69 102.472 15.85C103.919 14.2167 107.419 13.4 112.972 13.4C117.639 13.4 121.186 14.6367 123.612 17.11C126.086 19.5367 127.322 23.2 127.322 28.1V47H121.372L118.922 43.85H118.572C118.152 44.5033 117.499 45.1567 116.612 45.81C115.026 47.07 112.879 47.7 110.172 47.7ZM112.272 44.2C113.252 44.2 114.092 44.0133 114.792 43.64C115.492 43.22 116.169 42.66 116.822 41.96C117.429 41.3067 117.896 40.5367 118.222 39.65V30.9H117.172C113.859 30.9 111.456 31.5067 109.962 32.72C108.469 33.8867 107.722 35.73 107.722 38.25C107.722 40.1633 108.119 41.6333 108.912 42.66C109.706 43.6867 110.826 44.2 112.272 44.2ZM146.999 47.7C141.539 47.7 137.782 46.7433 135.729 44.83C134.982 44.13 134.515 43.15 134.329 41.89C134.142 40.5833 134.049 38.7867 134.049 36.5H136.499C136.919 38.9267 137.875 40.8867 139.369 42.38C140.862 43.8267 142.939 44.55 145.599 44.55C150.265 44.55 152.599 42.9633 152.599 39.79C152.599 38.5767 152.085 37.5733 151.059 36.78C150.079 35.9867 148.492 35.1 146.299 34.12L142.659 32.58C139.672 31.2733 137.432 29.85 135.939 28.31C134.445 26.77 133.699 24.9033 133.699 22.71C133.699 19.77 134.912 17.4833 137.339 15.85C139.812 14.2167 143.032 13.4 146.999 13.4C152.459 13.4 156.215 14.3567 158.269 16.27C159.015 16.97 159.482 17.95 159.669 19.21C159.855 20.47 159.949 22.2667 159.949 24.6H157.499C157.079 22.1733 156.122 20.2367 154.629 18.79C153.135 17.2967 151.059 16.55 148.399 16.55C146.392 16.55 144.899 16.9933 143.919 17.88C142.939 18.72 142.449 19.8633 142.449 21.31C142.449 22.4767 142.845 23.4567 143.639 24.25C144.479 24.9967 145.739 25.7433 147.419 26.49L151.619 28.24C155.072 29.6867 157.545 31.1567 159.039 32.65C160.579 34.0967 161.349 36.01 161.349 38.39C161.349 41.3767 160.019 43.6867 157.359 45.32C154.745 46.9067 151.292 47.7 146.999 47.7ZM7.27 72.99C6.24333 70.4233 5.19333 68.6033 4.12 67.53C3.04667 66.4567 1.78667 65.8267 0.34 65.64V64.24L3.28 64.1C6.40667 64.1 9.13667 64.6833 11.47 65.85C13.8033 66.97 15.6933 69.35 17.14 72.99L26.59 97.14L32.89 79.22L30.44 72.99C29.4133 70.47 28.2933 68.6733 27.08 67.6C25.9133 66.48 24.56 65.8267 23.02 65.64V64.24L25.75 64.1C28.8767 64.1 31.6067 64.6833 33.94 65.85C36.2733 67.0167 38.1633 69.3967 39.61 72.99L49.62 98.47L61.59 64.8H64.95L48.36 111.63H45.56L34.78 84.19L25.19 111.63H22.39L7.27 72.99ZM80.6841 111.7C77.4641 111.7 74.6408 110.953 72.2141 109.46C69.7875 107.967 67.8975 105.937 66.5441 103.37C65.2375 100.757 64.5841 97.8167 64.5841 94.55C64.5841 90.91 65.2375 87.8067 66.5441 85.24C67.8975 82.6733 69.7408 80.7367 72.0741 79.43C74.4075 78.0767 77.0441 77.4 79.9841 77.4C82.8775 77.4 85.4908 77.9833 87.8241 79.15C90.1575 80.3167 92.0008 81.9733 93.3541 84.12C94.7075 86.22 95.3841 88.6467 95.3841 91.4C95.3841 92.2867 95.3375 93.29 95.2441 94.41L95.1041 95.81H74.0341C74.0341 100.243 74.7108 103.487 76.0641 105.54C77.4175 107.547 79.3075 108.55 81.7341 108.55C83.9741 108.55 85.8408 108.06 87.3341 107.08C88.8741 106.053 90.3441 104.607 91.7441 102.74L93.9141 104.35C92.5608 106.45 90.8575 108.2 88.8041 109.6C86.7975 111 84.0908 111.7 80.6841 111.7ZM85.9341 92.66C85.9341 88.2733 85.4208 85.17 84.3941 83.35C83.3675 81.4833 81.8975 80.55 79.9841 80.55C78.2108 80.55 76.7641 81.5067 75.6441 83.42C74.5708 85.2867 74.0341 88.3667 74.0341 92.66H85.9341ZM111.539 111.7C107.759 111.7 104.819 110.86 102.719 109.18C100.666 107.453 99.6394 105.143 99.6394 102.25C99.6394 99.9167 100.176 97.98 101.249 96.44C102.369 94.9 104.306 93.7333 107.059 92.94C109.813 92.1467 113.639 91.75 118.539 91.75H119.589C119.589 87.69 119.029 84.82 117.909 83.14C116.789 81.4133 115.133 80.55 112.939 80.55C111.119 80.55 109.626 80.9933 108.459 81.88C107.293 82.7667 106.453 84.4233 105.939 86.85H102.089C102.089 85.2633 102.183 83.91 102.369 82.79C102.603 81.67 103.093 80.69 103.839 79.85C105.286 78.2167 108.786 77.4 114.339 77.4C119.006 77.4 122.553 78.6367 124.979 81.11C127.453 83.5367 128.689 87.2 128.689 92.1V111H122.739L120.289 107.85H119.939C119.519 108.503 118.866 109.157 117.979 109.81C116.393 111.07 114.246 111.7 111.539 111.7ZM113.639 108.2C114.619 108.2 115.459 108.013 116.159 107.64C116.859 107.22 117.536 106.66 118.189 105.96C118.796 105.307 119.263 104.537 119.589 103.65V94.9H118.539C115.226 94.9 112.823 95.5067 111.329 96.72C109.836 97.8867 109.089 99.73 109.089 102.25C109.089 104.163 109.486 105.633 110.279 106.66C111.073 107.687 112.193 108.2 113.639 108.2ZM148.156 111.7C144.936 111.7 142.439 110.837 140.666 109.11C138.893 107.337 138.006 104.793 138.006 101.48V81.25H133.806V78.1H138.006V71.8L141.506 67.6H147.106V78.1H154.806V81.25H147.106V101.9C147.106 104.42 147.409 106.17 148.016 107.15C148.623 108.083 149.533 108.55 150.746 108.55C152.053 108.55 153.359 108.247 154.666 107.64C155.179 107.36 155.716 107.033 156.276 106.66L157.256 108.62C156.649 109.133 155.926 109.647 155.086 110.16C153.126 111.187 150.816 111.7 148.156 111.7ZM161.282 73.9C161.282 71.52 160.955 69.77 160.302 68.65C159.649 67.4833 158.342 66.9 156.382 66.9H155.682V64.8H164.082C165.762 64.8 167.045 65.08 167.932 65.64C168.819 66.2 169.449 67.1333 169.822 68.44C170.195 69.7 170.382 71.52 170.382 73.9V80.06C170.802 79.7333 171.525 79.29 172.552 78.73C174.419 77.8433 176.262 77.4 178.082 77.4C181.862 77.4 185.012 78.38 187.532 80.34C190.099 82.2533 191.382 85.5433 191.382 90.21V111H182.282V90.56C182.282 87.2 181.675 84.75 180.462 83.21C179.295 81.67 177.802 80.9 175.982 80.9C174.722 80.9 173.392 81.32 171.992 82.16C171.432 82.4867 170.895 82.8833 170.382 83.35V111H161.282V73.9ZM213.848 111.7C210.628 111.7 207.805 110.953 205.378 109.46C202.952 107.967 201.062 105.937 199.708 103.37C198.402 100.757 197.748 97.8167 197.748 94.55C197.748 90.91 198.402 87.8067 199.708 85.24C201.062 82.6733 202.905 80.7367 205.238 79.43C207.572 78.0767 210.208 77.4 213.148 77.4C216.042 77.4 218.655 77.9833 220.988 79.15C223.322 80.3167 225.165 81.9733 226.518 84.12C227.872 86.22 228.548 88.6467 228.548 91.4C228.548 92.2867 228.502 93.29 228.408 94.41L228.268 95.81H207.198C207.198 100.243 207.875 103.487 209.228 105.54C210.582 107.547 212.472 108.55 214.898 108.55C217.138 108.55 219.005 108.06 220.498 107.08C222.038 106.053 223.508 104.607 224.908 102.74L227.078 104.35C225.725 106.45 224.022 108.2 221.968 109.6C219.962 111 217.255 111.7 213.848 111.7ZM219.098 92.66C219.098 88.2733 218.585 85.17 217.558 83.35C216.532 81.4833 215.062 80.55 213.148 80.55C211.375 80.55 209.928 81.5067 208.808 83.42C207.735 85.2867 207.198 88.3667 207.198 92.66H219.098ZM257.443 78.8C258.283 79.4067 258.89 80.0833 259.263 80.83C259.637 81.53 259.823 81.9033 259.823 81.95L256.253 84.68C255.927 84.26 255.507 83.8167 254.993 83.35C253.967 82.4167 252.777 81.95 251.423 81.95C248.717 81.95 246.64 82.6733 245.193 84.12L245.333 85.17C245.427 86.01 245.473 86.78 245.473 87.48V111H236.373V87.2C236.373 84.82 236.047 83.07 235.393 81.95C234.787 80.7833 233.503 80.2 231.543 80.2H230.843V78.1H237.773C239.36 78.1 240.597 78.31 241.483 78.73C242.417 79.1033 243.14 79.7567 243.653 80.69C246.173 78.4967 249.113 77.4 252.473 77.4C254.48 77.4 256.137 77.8667 257.443 78.8Z" fill="white"/>
</svg>
