<svg width="24" height="25" viewBox="0 0 24 25" fill="none" xmlns="http://www.w3.org/2000/svg">
<path d="M12 20C13.9891 20 15.8968 19.2098 17.3033 17.8033C18.7098 16.3968 19.5 14.4891 19.5 12.5C19.5 10.5109 18.7098 8.60322 17.3033 7.1967C15.8968 5.79018 13.9891 5 12 5C10.0109 5 8.10322 5.79018 6.6967 7.1967C5.29018 8.60322 4.5 10.5109 4.5 12.5C4.5 14.4891 5.29018 16.3968 6.6967 17.8033C8.10322 19.2098 10.0109 20 12 20Z" stroke="white" stroke-width="1.5" stroke-linecap="round" stroke-linejoin="round"/>
<path d="M12 4.5V2.5M4 12.5H2M12 20.5V22.5M20 12.5H22M12 15.5C12.7956 15.5 13.5587 15.1839 14.1213 14.6213C14.6839 14.0587 15 13.2956 15 12.5C15 11.7044 14.6839 10.9413 14.1213 10.3787C13.5587 9.81607 12.7956 9.5 12 9.5C11.2044 9.5 10.4413 9.81607 9.87868 10.3787C9.31607 10.9413 9 11.7044 9 12.5C9 13.2956 9.31607 14.0587 9.87868 14.6213C10.4413 15.1839 11.2044 15.5 12 15.5Z" stroke="white" stroke-width="1.5" stroke-linecap="round" stroke-linejoin="round"/>
</svg>
